# xmcd
#
# Track frame offsets: 
#        182
#        4525
#        17070
#        30595
#        43390
#        60132
#        71720
#        85650
#        95425
#        103272
#        114607
#        127080
#        139972
#        151302
#        159400
#        171620
#        187675
#        197762
#
# Disc length: 2676 seconds
#
# Revision: 0
# Processed by: cddbd v1.5.2PL0 Copyright (c) Steve Scherf et al.
# Submitted via: ExactAudioCopy v0.95b4
#
DISCID=ef0a7212
DTITLE=Hank Williams - Hank Williams: My Home, The Highway - Disc 2
DYEAR=1900
DGENRE=Country
TTITLE0=Happy Rovin' Cowboy
TTITLE1=Lovesick Blues
TTITLE2=A Mansion On the Hill
TTITLE3=You're Gonna Change (Or I'm Gonna Leave)
TTITLE4=A Tramp On the Street
TTITLE5=I'm a Long Gone Daddy
TTITLE6=Lost Highway
TTITLE7=I'll Have a New Body (I'll Have a New Life)
TTITLE8=I Can't Get You Off My Mind
TTITLE9=The Prodigal Son
TTITLE10=Pan American
TTITLE11=There'll Be No Teardrops Tonight
TTITLE12=Mind Your Own Business
TTITLE13=I've Just Told Mama Goodbye
TTITLE14=I'm So Lonesome I Could Cry
TTITLE15=Thy Burdens Are Greater Than Mine
TTITLE16=I Saw the Light
TTITLE17=Sally Goodin
EXTD=
EXTT0=
EXTT1=
EXTT2=
EXTT3=
EXTT4=
EXTT5=
EXTT6=
EXTT7=
EXTT8=
EXTT9=
EXTT10=
EXTT11=
EXTT12=
EXTT13=
EXTT14=
EXTT15=
EXTT16=
EXTT17=
PLAYORDER=
